<svg xmlns="http://www.w3.org/2000/svg" width="150.546" height="53.981" viewBox="0 0 150.546 53.981"><defs><style>.a{fill:red;}</style></defs><g transform="translate(-137.216 -192.484)"><g transform="translate(186.597 214.414)"><g transform="translate(0 1.377)"><path class="a" d="M339.827,294.431l-.016-6.648-3.26,5.476H335.4l-3.245-5.334v6.505h-2.406V283.352h2.121l4.147,6.885,4.084-6.885H342.2l.032,11.079Z" transform="translate(-329.745 -283.352)"/></g><g transform="translate(13.516 3.814)"><path class="a" d="M391.37,297.936h-6.442a2.005,2.005,0,0,0,.823,1.25,2.725,2.725,0,0,0,1.615.459,3.265,3.265,0,0,0,1.179-.2,2.85,2.85,0,0,0,.957-.625l1.314,1.425a4.416,4.416,0,0,1-3.514,1.377,5.555,5.555,0,0,1-2.548-.562,4.116,4.116,0,0,1-1.71-1.559,4.292,4.292,0,0,1-.6-2.263,4.354,4.354,0,0,1,.594-2.255,4.158,4.158,0,0,1,1.63-1.567,5.047,5.047,0,0,1,4.582-.024,3.928,3.928,0,0,1,1.591,1.543,4.6,4.6,0,0,1,.578,2.334Q391.417,297.318,391.37,297.936Zm-5.777-2.738a2.021,2.021,0,0,0-.7,1.3h4.194a2.043,2.043,0,0,0-.7-1.29,2.081,2.081,0,0,0-1.393-.483A2.125,2.125,0,0,0,385.593,295.2Z" transform="translate(-382.443 -292.855)"/></g><g transform="translate(22.744 0.712)"><path class="a" d="M427.7,280.759V292.5h-2.358v-.981a3.256,3.256,0,0,1-2.659,1.108,4.42,4.42,0,0,1-2.176-.538,3.851,3.851,0,0,1-1.527-1.535,5.1,5.1,0,0,1,0-4.622A3.851,3.851,0,0,1,420.5,284.4a4.421,4.421,0,0,1,2.176-.538,3.239,3.239,0,0,1,2.548,1.029v-4.131Zm-3.039,9.2a2.7,2.7,0,0,0,0-3.435,2.216,2.216,0,0,0-3.118,0,2.7,2.7,0,0,0,0,3.435,2.216,2.216,0,0,0,3.118,0Z" transform="translate(-418.42 -280.759)"/></g><g transform="translate(33.206 0)"><path class="a" d="M459.636,280.341a1.34,1.34,0,0,1,0-1.963,1.568,1.568,0,0,1,1.108-.4,1.606,1.606,0,0,1,1.108.38,1.219,1.219,0,0,1,.427.95,1.345,1.345,0,0,1-.427,1.021,1.549,1.549,0,0,1-1.108.4A1.566,1.566,0,0,1,459.636,280.341Zm-.126,1.583h2.469v8.515H459.51Z" transform="translate(-459.209 -277.983)"/></g><g transform="translate(37.653 1.377)"><path class="a" d="M483.9,283.842a3.8,3.8,0,0,1,1.67,1.393,4.175,4.175,0,0,1,0,4.265,3.729,3.729,0,0,1-1.67,1.393,6.243,6.243,0,0,1-2.556.483h-2.232v3.055h-2.564V283.352h4.8A6.162,6.162,0,0,1,483.9,283.842Zm-.942,4.946a1.737,1.737,0,0,0,.6-1.417,1.755,1.755,0,0,0-.6-1.432,2.693,2.693,0,0,0-1.757-.5h-2.089v3.846H481.2A2.694,2.694,0,0,0,482.959,288.789Z" transform="translate(-476.549 -283.352)"/></g><g transform="translate(48.273 0.712)"><path class="a" d="M525.688,284.811a3.766,3.766,0,0,1,.973,2.817V292.5h-2.469v-4.5a2.221,2.221,0,0,0-.443-1.511,1.626,1.626,0,0,0-1.282-.5,1.964,1.964,0,0,0-1.488.578,2.392,2.392,0,0,0-.554,1.717v4.21h-2.469V280.759h2.469v4.115a3.285,3.285,0,0,1,1.187-.752,4.291,4.291,0,0,1,1.519-.261A3.5,3.5,0,0,1,525.688,284.811Z" transform="translate(-517.956 -280.759)"/></g><g transform="translate(57.865 3.814)"><path class="a" d="M562.378,293.8a3.606,3.606,0,0,1,1.06,2.841V301.5h-2.311v-1.061a2.752,2.752,0,0,1-2.6,1.187,4.026,4.026,0,0,1-1.7-.332,2.536,2.536,0,0,1-1.1-.918,2.388,2.388,0,0,1-.38-1.33,2.219,2.219,0,0,1,.894-1.868,4.558,4.558,0,0,1,2.762-.68h1.962a1.575,1.575,0,0,0-.49-1.242,2.162,2.162,0,0,0-1.472-.435,4.3,4.3,0,0,0-1.337.214,3.533,3.533,0,0,0-1.116.578l-.886-1.725a5.353,5.353,0,0,1,1.67-.76,7.474,7.474,0,0,1,2-.269A4.433,4.433,0,0,1,562.378,293.8Zm-2.105,5.872a1.6,1.6,0,0,0,.7-.862v-.871h-1.693q-1.52,0-1.52,1a.887.887,0,0,0,.372.752,1.673,1.673,0,0,0,1.021.277A2.148,2.148,0,0,0,560.273,299.669Z" transform="translate(-555.351 -292.855)"/></g><g transform="translate(67.393 3.814)"><path class="a" d="M596.052,293.172a4.434,4.434,0,0,1,1.733-.316v2.279q-.412-.032-.554-.032a2.264,2.264,0,0,0-1.662.594,2.4,2.4,0,0,0-.6,1.781v4.02H592.5v-8.515h2.358v1.123A2.747,2.747,0,0,1,596.052,293.172Z" transform="translate(-592.499 -292.855)"/></g><g transform="translate(73.36 3.814)"><path class="a" d="M629.209,293.8a3.839,3.839,0,0,1,.942,2.825V301.5h-2.469V297a2.308,2.308,0,0,0-.419-1.511,1.476,1.476,0,0,0-1.195-.5,1.761,1.761,0,0,0-1.377.562,2.422,2.422,0,0,0-.507,1.67V301.5h-2.469V297q0-2.01-1.614-2.01a1.743,1.743,0,0,0-1.361.562,2.422,2.422,0,0,0-.507,1.67V301.5h-2.469v-8.515h2.358v.981a3.119,3.119,0,0,1,1.163-.823,3.916,3.916,0,0,1,1.511-.285,3.661,3.661,0,0,1,1.63.356,2.892,2.892,0,0,1,1.171,1.037,3.494,3.494,0,0,1,1.322-1.029,4.169,4.169,0,0,1,1.749-.364A3.434,3.434,0,0,1,629.209,293.8Z" transform="translate(-615.764 -292.855)"/></g><g transform="translate(88.617 3.814)"><path class="a" d="M682.278,293.8a3.605,3.605,0,0,1,1.061,2.841V301.5h-2.311v-1.061a2.751,2.751,0,0,1-2.6,1.187,4.028,4.028,0,0,1-1.7-.332,2.537,2.537,0,0,1-1.1-.918,2.39,2.39,0,0,1-.38-1.33,2.219,2.219,0,0,1,.894-1.868,4.558,4.558,0,0,1,2.762-.68h1.963a1.574,1.574,0,0,0-.491-1.242,2.162,2.162,0,0,0-1.472-.435,4.3,4.3,0,0,0-1.337.214,3.538,3.538,0,0,0-1.116.578l-.886-1.725a5.353,5.353,0,0,1,1.67-.76,7.472,7.472,0,0,1,2-.269A4.432,4.432,0,0,1,682.278,293.8Zm-2.1,5.872a1.6,1.6,0,0,0,.7-.862v-.871h-1.693q-1.52,0-1.52,1a.887.887,0,0,0,.372.752,1.673,1.673,0,0,0,1.021.277A2.149,2.149,0,0,0,680.173,299.669Z" transform="translate(-675.251 -292.855)"/></g></g><g transform="translate(137.216 192.485)"><path class="a" d="M160.842,246.466a2.731,2.731,0,0,1-2.7-2.173l-6.4-30.106-3.057,13.569a2.766,2.766,0,0,1-2.7,2.147h-6.955a1.818,1.818,0,0,1,0-3.635h6.261l3.774-16.756a2.768,2.768,0,0,1,5.4.026l6.248,29.377,6.882-44.079a2.768,2.768,0,0,1,5.467-.038l4.234,25.379,3.018-10.553a2.78,2.78,0,0,1,2.662-2.007h5.182a1.818,1.818,0,1,1,0,3.635h-4.528l-3.895,13.62a2.768,2.768,0,0,1-5.392-.306l-3.982-23.873-6.78,43.423a2.728,2.728,0,0,1-2.637,2.349Zm-.849-2.908,0,.015Zm11.2-48.18,0,.014Z" transform="translate(-137.216 -192.485)"/></g><g transform="translate(284.147 224.933)"><path class="a" d="M710.077,319h1.461v.277h-.585v1.661h-.292v-1.661h-.585Z" transform="translate(-710.077 -318.997)"/><path class="a" d="M718.733,319v1.938h-.292v-1.2l-.554,1.2H717.7l-.553-1.2v1.2h-.292V319h.246l.692,1.492.692-1.492Z" transform="translate(-715.117 -318.997)"/></g></g></svg>