<svg xmlns="http://www.w3.org/2000/svg" width="164.046" height="58.822" viewBox="0 0 164.046 58.822"><defs><style>.a{fill:#fff;}</style></defs><g transform="translate(-137.216 -192.485)"><g transform="translate(191.025 216.38)"><g transform="translate(0 1.501)"><path class="a" d="M340.731,295.425l-.017-7.244-3.553,5.967H335.9l-3.536-5.812v7.088h-2.621V283.352h2.311l4.518,7.5,4.45-7.5h2.294l.034,12.073Z" transform="translate(-329.745 -283.352)"/></g><g transform="translate(14.728 4.157)"><path class="a" d="M392.171,298.391h-7.02a2.185,2.185,0,0,0,.9,1.362,2.969,2.969,0,0,0,1.759.5,3.558,3.558,0,0,0,1.285-.216,3.106,3.106,0,0,0,1.043-.681l1.432,1.552a4.812,4.812,0,0,1-3.829,1.5,6.054,6.054,0,0,1-2.777-.612,4.485,4.485,0,0,1-1.863-1.7,4.677,4.677,0,0,1-.655-2.466,4.745,4.745,0,0,1,.647-2.458,4.53,4.53,0,0,1,1.776-1.707,5.5,5.5,0,0,1,4.993-.026,4.28,4.28,0,0,1,1.733,1.682,5.016,5.016,0,0,1,.63,2.544Q392.222,297.719,392.171,298.391Zm-6.3-2.984a2.2,2.2,0,0,0-.759,1.414h4.57a2.226,2.226,0,0,0-.759-1.406,2.268,2.268,0,0,0-1.518-.526A2.316,2.316,0,0,0,385.875,295.407Z" transform="translate(-382.443 -292.855)"/></g><g transform="translate(24.783 0.776)"><path class="a" d="M428.527,280.759v12.8h-2.57v-1.069a3.548,3.548,0,0,1-2.9,1.207,4.817,4.817,0,0,1-2.371-.586,4.2,4.2,0,0,1-1.664-1.673,5.554,5.554,0,0,1,0-5.036,4.2,4.2,0,0,1,1.664-1.673,4.817,4.817,0,0,1,2.371-.586,3.53,3.53,0,0,1,2.777,1.121v-4.5Zm-3.312,10.029a2.939,2.939,0,0,0,0-3.743,2.414,2.414,0,0,0-3.4,0,2.939,2.939,0,0,0,0,3.743,2.415,2.415,0,0,0,3.4,0Z" transform="translate(-418.42 -280.759)"/></g><g transform="translate(36.183 0)"><path class="a" d="M459.675,280.553a1.461,1.461,0,0,1,0-2.139,1.709,1.709,0,0,1,1.207-.431,1.751,1.751,0,0,1,1.207.414,1.329,1.329,0,0,1,.466,1.035,1.465,1.465,0,0,1-.466,1.112,1.687,1.687,0,0,1-1.207.44A1.706,1.706,0,0,1,459.675,280.553Zm-.138,1.725h2.69v9.279h-2.69Z" transform="translate(-459.209 -277.983)"/></g><g transform="translate(41.03 1.501)"><path class="a" d="M484.56,283.886a4.141,4.141,0,0,1,1.819,1.518,4.55,4.55,0,0,1,0,4.648,4.063,4.063,0,0,1-1.819,1.518,6.8,6.8,0,0,1-2.785.526h-2.432v3.329h-2.794V283.352h5.226A6.714,6.714,0,0,1,484.56,283.886Zm-1.026,5.39a1.892,1.892,0,0,0,.655-1.544,1.913,1.913,0,0,0-.655-1.561,2.935,2.935,0,0,0-1.914-.543h-2.277v4.191h2.277A2.936,2.936,0,0,0,483.534,289.276Z" transform="translate(-476.549 -283.352)"/></g><g transform="translate(52.602 0.776)"><path class="a" d="M526.381,285.174a4.1,4.1,0,0,1,1.061,3.07v5.312h-2.691v-4.9a2.42,2.42,0,0,0-.483-1.647,1.772,1.772,0,0,0-1.4-.543,2.141,2.141,0,0,0-1.621.629,2.606,2.606,0,0,0-.6,1.871v4.588h-2.69v-12.8h2.69v4.484a3.579,3.579,0,0,1,1.294-.819,4.676,4.676,0,0,1,1.656-.285A3.819,3.819,0,0,1,526.381,285.174Z" transform="translate(-517.956 -280.759)"/></g><g transform="translate(63.054 4.157)"><path class="a" d="M563.009,293.881a3.929,3.929,0,0,1,1.155,3.1v5.295h-2.518v-1.156a3,3,0,0,1-2.829,1.293,4.387,4.387,0,0,1-1.854-.362,2.763,2.763,0,0,1-1.2-1,2.6,2.6,0,0,1-.414-1.449,2.418,2.418,0,0,1,.975-2.035,4.966,4.966,0,0,1,3.01-.742h2.138a1.716,1.716,0,0,0-.534-1.354,2.356,2.356,0,0,0-1.6-.474,4.682,4.682,0,0,0-1.457.233,3.849,3.849,0,0,0-1.216.629l-.966-1.88a5.833,5.833,0,0,1,1.82-.828,8.145,8.145,0,0,1,2.182-.293A4.83,4.83,0,0,1,563.009,293.881Zm-2.294,6.4a1.746,1.746,0,0,0,.759-.94v-.949h-1.845q-1.656,0-1.656,1.086a.967.967,0,0,0,.406.819,1.823,1.823,0,0,0,1.112.3A2.341,2.341,0,0,0,560.715,300.28Z" transform="translate(-555.351 -292.855)"/></g><g transform="translate(73.436 4.157)"><path class="a" d="M596.371,293.2a4.832,4.832,0,0,1,1.888-.345v2.484q-.449-.034-.6-.035a2.467,2.467,0,0,0-1.811.647,2.613,2.613,0,0,0-.656,1.94v4.381H592.5v-9.279h2.57v1.224A2.993,2.993,0,0,1,596.371,293.2Z" transform="translate(-592.499 -292.855)"/></g><g transform="translate(79.938 4.157)"><path class="a" d="M630.415,293.881a4.183,4.183,0,0,1,1.026,3.079v5.312h-2.69v-4.9a2.515,2.515,0,0,0-.457-1.647,1.608,1.608,0,0,0-1.3-.543,1.919,1.919,0,0,0-1.5.612,2.639,2.639,0,0,0-.552,1.819v4.657h-2.691v-4.9q0-2.19-1.759-2.19a1.9,1.9,0,0,0-1.483.612,2.639,2.639,0,0,0-.552,1.819v4.657h-2.69v-9.279h2.57v1.069a3.4,3.4,0,0,1,1.268-.9,4.268,4.268,0,0,1,1.647-.31,3.989,3.989,0,0,1,1.777.388,3.151,3.151,0,0,1,1.276,1.13,3.808,3.808,0,0,1,1.44-1.121,4.543,4.543,0,0,1,1.906-.4A3.742,3.742,0,0,1,630.415,293.881Z" transform="translate(-615.764 -292.855)"/></g><g transform="translate(96.564 4.157)"><path class="a" d="M682.909,293.881a3.928,3.928,0,0,1,1.156,3.1v5.295h-2.518v-1.156a3,3,0,0,1-2.828,1.293,4.389,4.389,0,0,1-1.854-.362,2.764,2.764,0,0,1-1.2-1,2.6,2.6,0,0,1-.414-1.449,2.417,2.417,0,0,1,.975-2.035,4.967,4.967,0,0,1,3.009-.742h2.139a1.715,1.715,0,0,0-.535-1.354,2.356,2.356,0,0,0-1.6-.474,4.684,4.684,0,0,0-1.457.233,3.855,3.855,0,0,0-1.216.629l-.966-1.88a5.835,5.835,0,0,1,1.82-.828,8.143,8.143,0,0,1,2.182-.293A4.829,4.829,0,0,1,682.909,293.881Zm-2.294,6.4a1.746,1.746,0,0,0,.759-.94v-.949h-1.845q-1.656,0-1.656,1.086a.967.967,0,0,0,.405.819,1.824,1.824,0,0,0,1.113.3A2.342,2.342,0,0,0,680.615,300.28Z" transform="translate(-675.251 -292.855)"/></g></g><g transform="translate(137.216 192.485)"><path class="a" d="M162.961,251.307a2.976,2.976,0,0,1-2.939-2.368l-6.978-32.806-3.331,14.786a3.014,3.014,0,0,1-2.939,2.34H139.2a1.981,1.981,0,0,1,0-3.961h6.822l4.113-18.259a3.016,3.016,0,0,1,5.885.028l6.809,32.011,7.5-48.032a3.016,3.016,0,0,1,5.957-.041L180.9,222.66l3.288-11.5a3.03,3.03,0,0,1,2.9-2.187h5.646a1.981,1.981,0,1,1,0,3.961H187.8l-4.244,14.841a3.016,3.016,0,0,1-5.875-.333l-4.339-26.014-7.388,47.317a2.973,2.973,0,0,1-2.873,2.56Zm-.926-3.169,0,.016Zm12.207-52.5,0,.015Z" transform="translate(-137.216 -192.485)"/></g><g transform="translate(297.322 227.843)"><path class="a" d="M710.077,319h1.592v.3h-.637v1.81h-.318V319.3h-.637Z" transform="translate(-710.077 -318.997)"/><path class="a" d="M718.9,319v2.112h-.319V319.8l-.6,1.307h-.2l-.6-1.307v1.307h-.319V319h.268l.754,1.625.754-1.625Z" transform="translate(-714.961 -318.997)"/></g></g></svg>